<svg xmlns="http://www.w3.org/2000/svg" viewBox="0 0 80 80" role="img" aria-labelledby="title">
  <title id="title">Swagpay one-color ribbon mark</title>
  <path d="M112 11C133 11 174 18 192 24C201 27 204 33 201 43L193 65C188 79 179 85 166 83C149 81 130 76 114 72C122 85 140 94 157 102C184 115 198 130 200 150C203 175 190 202 172 216C157 227 126 226 95 224C64 222 44 218 41 202C38 187 43 174 56 166C66 161 76 162 86 163C109 166 128 168 140 164C127 154 109 148 92 140C65 127 49 111 49 93C49 69 68 42 83 22C94 12 105 11 112 11Z" transform="scale(.333333333)" fill="#D7266F"/>
</svg>
